<svg width="1180" height="650" viewBox="0 0 1180 650" xmlns="http://www.w3.org/2000/svg">
    <defs>
        <linearGradient id="bg-grad" x1="0%" y1="0%" x2="100%" y2="100%">
            <stop offset="0%" stop-color="#FFFFFF" />
            <stop offset="100%" stop-color="#F1F5F9" />
        </linearGradient>

        <radialGradient id="glow-grad" cx="50%" cy="50%" r="50%">
            <stop offset="0%" stop-color="#2563EB" stop-opacity="0.06" />
            <stop offset="100%" stop-color="#FFFFFF" stop-opacity="0" />
            <animate attributeName="r" values="40%; 60%; 40%" dur="8s" repeatCount="indefinite"/>
        </radialGradient>
        
        <radialGradient id="glow-cyan" cx="20%" cy="80%" r="60%">
            <stop offset="0%" stop-color="#06B6D4" stop-opacity="0.06" />
            <stop offset="100%" stop-color="#FFFFFF" stop-opacity="0" />
            <animate attributeName="r" values="50%; 70%; 50%" dur="10s" repeatCount="indefinite"/>
        </radialGradient>

        <linearGradient id="ascii-grad" x1="0%" y1="0%" x2="200%" y2="200%">
            <stop offset="0%" stop-color="#2563EB" />
            <stop offset="25%" stop-color="#06B6D4" />
            <stop offset="50%" stop-color="#10B981" />
            <stop offset="75%" stop-color="#06B6D4" />
            <stop offset="100%" stop-color="#2563EB" />
            <animate attributeName="x1" from="0%" to="-200%" dur="6s" repeatCount="indefinite"/>
            <animate attributeName="x2" from="200%" to="0%" dur="6s" repeatCount="indefinite"/>
        </linearGradient>

        <linearGradient id="shimmer" x1="-100%" y1="0%" x2="0%" y2="100%">
            <stop offset="0%" stop-color="rgba(15,23,42,0.04)" />
            <stop offset="50%" stop-color="rgba(37, 99, 235, 0.3)" />
            <stop offset="100%" stop-color="rgba(15,23,42,0.04)" />
            <animate attributeName="x1" from="-100%" to="200%" dur="4s" repeatCount="indefinite"/>
            <animate attributeName="x2" from="0%" to="300%" dur="4s" repeatCount="indefinite"/>
        </linearGradient>

        <filter id="noise">
            <feTurbulence type="fractalNoise" baseFrequency="0.8" numOctaves="3" stitchTiles="stitch"/>
            <feColorMatrix type="matrix" values="1 0 0 0 0, 0 1 0 0 0, 0 0 1 0 0, 0 0 0 0.03 0" />
        </filter>

        <filter id="shadow" x="-10%" y="-10%" width="120%" height="120%">
            <feDropShadow dx="0" dy="10" stdDeviation="15" flood-color="#0F172A" flood-opacity="0.05"/>
        </filter>
        
        <filter id="blur-glow" x="-20%" y="-20%" width="140%" height="140%">
            <feGaussianBlur stdDeviation="6" result="blur" />
            <feMerge>
                <feMergeNode in="blur" />
                <feMergeNode in="SourceGraphic" />
            </feMerge>
        </filter>

        <clipPath id="avatar-clip">
            <circle cx="215" cy="205" r="95" />
        </clipPath>

        <clipPath id="type-1">
            <rect x="0" y="-30" width="0" height="40">
                <animate attributeName="width" values="0; 132; 132; 0; 0" keyTimes="0; 0.0625; 0.1875; 0.25; 1" dur="16s" repeatCount="indefinite" />
            </rect>
        </clipPath>
        <clipPath id="type-2">
            <rect x="0" y="-30" width="0" height="40">
                <animate attributeName="width" values="0; 0; 288; 288; 0; 0" keyTimes="0; 0.25; 0.3125; 0.4375; 0.5; 1" dur="16s" repeatCount="indefinite" />
            </rect>
        </clipPath>
        <clipPath id="type-3">
            <rect x="0" y="-30" width="0" height="40">
                <animate attributeName="width" values="0; 0; 240; 240; 0; 0" keyTimes="0; 0.5; 0.5625; 0.6875; 0.75; 1" dur="16s" repeatCount="indefinite" />
            </rect>
        </clipPath>
        <clipPath id="type-4">
            <rect x="0" y="-30" width="0" height="40">
                <animate attributeName="width" values="0; 0; 336; 336; 0" keyTimes="0; 0.75; 0.8125; 0.9375; 1" dur="16s" repeatCount="indefinite" />
            </rect>
        </clipPath>
        
        <clipPath id="left-panel-clip">
            <rect x="20" y="20" width="430" height="610" rx="28" />
        </clipPath>
    </defs>

    <style>
        .pill { transition: all 0.3s ease; }
        .pill:hover rect { fill: rgba(37, 99, 235, 0.08); stroke: rgba(37, 99, 235, 0.4); }
        .pill:hover text { fill: #0F172A; font-weight: 600; }
        .social:hover path { fill: #2563EB; }
    </style>

    <rect width="1180" height="650" fill="url(#bg-grad)" rx="32" />
    <rect width="1180" height="650" filter="url(#noise)" opacity="0.6" rx="32" pointer-events="none" />
    
    <rect width="1180" height="650" fill="url(#glow-grad)" rx="32" />
    <rect width="1180" height="650" fill="url(#glow-cyan)" rx="32" />

    <g fill="#06B6D4">
        <circle cx="100" cy="120" r="1.5"><animate attributeName="opacity" values="0.1;0.6;0.1" dur="4s" repeatCount="indefinite"/><animate attributeName="cy" values="120;100;120" dur="6s" repeatCount="indefinite"/></circle>
        <circle cx="1050" cy="90" r="1.5"><animate attributeName="opacity" values="0.2;0.7;0.2" dur="5s" repeatCount="indefinite"/><animate attributeName="cy" values="90;60;90" dur="7s" repeatCount="indefinite"/></circle>
        <circle cx="600" cy="580" r="2"><animate attributeName="opacity" values="0.1;0.5;0.1" dur="3s" repeatCount="indefinite"/><animate attributeName="cy" values="580;560;580" dur="5s" repeatCount="indefinite"/></circle>
        <circle cx="1100" cy="480" r="1"><animate attributeName="opacity" values="0.2;0.8;0.2" dur="4.5s" repeatCount="indefinite"/><animate attributeName="cy" values="480;450;480" dur="8s" repeatCount="indefinite"/></circle>
        <circle cx="380" cy="270" r="1.5"><animate attributeName="opacity" values="0.1;0.5;0.1" dur="6s" repeatCount="indefinite"/><animate attributeName="cy" values="270;290;270" dur="9s" repeatCount="indefinite"/></circle>
    </g>

    <g transform="translate(20, 20)" filter="url(#shadow)">
        <rect width="430" height="610" rx="28" fill="#F8FAFC" opacity="0.8" />
        <rect width="430" height="610" rx="28" fill="none" stroke="url(#shimmer)" stroke-width="1.5" />
        
        <g clip-path="url(#left-panel-clip)">
            <g>
                <animateTransform attributeName="transform" type="translate" values="0,0; 0,-8; 0,0" dur="6s" repeatCount="indefinite" />
                
                <g>
                    <circle cx="215" cy="205" r="100" fill="none" stroke="url(#ascii-grad)" stroke-width="2" filter="url(#blur-glow)">
                        <animateTransform attributeName="transform" type="rotate" from="0 215 205" to="360 215 205" dur="8s" repeatCount="indefinite"/>
                    </circle>
                    <circle cx="215" cy="205" r="97" fill="none" stroke="#06B6D4" stroke-width="1" opacity="0.6"/>
                    
                    <image href="https://github.com/Pranay-Kumar-02.png" x="120" y="110" height="190" width="190" clip-path="url(#avatar-clip)" preserveAspectRatio="xMidYMid slice" />
                    
                    <animate attributeName="opacity" values="0;1" dur="1.5s" fill="freeze" />
                </g>
                
                <text x="40" y="440" font-family="monospace" font-size="12" fill="#475569" letter-spacing="0.5">
                    <tspan x="40" dy="1.6em">> INITIALIZING KERNEL...</tspan>
                    <tspan x="40" dy="1.6em">> SECURE ENCLAVE ACTIVE</tspan>
                    <tspan x="40" dy="1.6em">> NEURAL NETWORKS: ONLINE</tspan>
                    <tspan x="40" dy="1.6em">> AWAITING PROTOCOL...</tspan>
                    <animate attributeName="opacity" values="0;1;1;1" keyTimes="0; 0.3; 0.9; 1" dur="8s" repeatCount="indefinite"/>
                </text>
                <rect x="40" y="525" width="8" height="15" fill="#2563EB">
                    <animate attributeName="opacity" values="1;0;1" dur="0.8s" repeatCount="indefinite"/>
                </rect>
            </g>
            
            <rect x="0" y="0" width="430" height="3" fill="#06B6D4" opacity="0.2">
                <animate attributeName="y" values="-10; 620; -10" dur="4s" repeatCount="indefinite" />
            </rect>
        </g>
    </g>

    <g transform="translate(470, 20)" filter="url(#shadow)">
        <rect width="690" height="610" rx="28" fill="#F8FAFC" opacity="0.8" />
        <rect width="690" height="610" rx="28" fill="none" stroke="rgba(15,23,42,0.06)" stroke-width="1" />

        <g transform="translate(50, 60)">
            <text y="0" font-family="-apple-system, BlinkMacSystemFont, 'Segoe UI', Roboto, Helvetica, Arial, sans-serif" font-size="28" font-weight="600" fill="#475569" letter-spacing="-0.5">Hi 👋 I'm</text>
            <text y="52" font-family="-apple-system, BlinkMacSystemFont, 'Segoe UI', Roboto, Helvetica, Arial, sans-serif" font-size="46" font-weight="800" fill="#0F172A" letter-spacing="-1">Pranay Kumar Vonamala</text>

            <g transform="translate(0, 105)">
                <text font-family="'Consolas', 'Courier New', monospace" font-size="20" font-weight="600" fill="#2563EB">
                    <tspan x="0" y="0" clip-path="url(#type-1)">AI Engineer</tspan>
                    <tspan x="0" y="0" clip-path="url(#type-2)">Cybersecurity Enthusiast</tspan>
                    <tspan x="0" y="0" clip-path="url(#type-3)">Full Stack Developer</tspan>
                    <tspan x="0" y="0" clip-path="url(#type-4)">Building Intelligent Systems</tspan>
                </text>
                
                <rect y="-18" width="12" height="24" fill="#2563EB">
                    <animate attributeName="x" values="0; 132; 132; 0; 0" keyTimes="0; 0.0625; 0.1875; 0.25; 1" dur="16s" repeatCount="indefinite" />
                    <animate attributeName="x" values="0; 0; 288; 288; 0; 0" keyTimes="0; 0.25; 0.3125; 0.4375; 0.5; 1" dur="16s" repeatCount="indefinite" />
                    <animate attributeName="x" values="0; 0; 240; 240; 0; 0" keyTimes="0; 0.5; 0.5625; 0.6875; 0.75; 1" dur="16s" repeatCount="indefinite" />
                    <animate attributeName="x" values="0; 0; 336; 336; 0" keyTimes="0; 0.75; 0.8125; 0.9375; 1" dur="16s" repeatCount="indefinite" />
                    <animate attributeName="opacity" values="1;0;1" dur="0.8s" repeatCount="indefinite"/>
                </rect>
            </g>

            <g transform="translate(0, 175)" font-family="-apple-system, BlinkMacSystemFont, 'Segoe UI', Roboto, sans-serif">
                <g opacity="0">
                    <animate attributeName="opacity" from="0" to="1" begin="0.5s" fill="freeze" dur="1s" />
                    <rect width="44" height="44" rx="12" fill="rgba(15,23,42,0.05)" />
                    <path transform="translate(4,4)" d="M18 10C15.24 10 13 12.24 13 15C13 18.86 18 25 18 25C18 25 23 18.86 23 15C23 12.24 20.76 10 18 10ZM18 17C16.9 17 16 16.1 16 15C16 13.9 16.9 13 18 13C19.1 13 20 13.9 20 15C20 16.1 19.1 17 18 17Z" fill="#475569"/>
                    <text x="60" y="19" fill="#475569" font-size="12" font-weight="600" letter-spacing="1">LOCATION</text>
                    <text x="60" y="38" fill="#0F172A" font-size="15" font-weight="600">Hyderabad, India</text>
                </g>
                
                <g transform="translate(330, 0)" opacity="0">
                    <animate attributeName="opacity" from="0" to="1" begin="1.0s" fill="freeze" dur="1s" />
                    <rect width="44" height="44" rx="12" fill="rgba(15,23,42,0.05)" />
                    <path transform="translate(4,4)" d="M18 10L8 15L18 20L26.11 15.94V21H28V15L18 10ZM18 22.3L11.53 19.06L10 19.82V23C10 23 14 26 18 26C22 26 26 23 26 23V19.82L24.47 19.06L18 22.3Z" fill="#475569"/>
                    <text x="60" y="19" fill="#475569" font-size="12" font-weight="600" letter-spacing="1">EDUCATION</text>
                    <text x="60" y="38" fill="#0F172A" font-size="15" font-weight="600">B.Tech CSE (Information Security) @ VIT</text>
                </g>

                <g transform="translate(0, 75)" opacity="0">
                    <animate attributeName="opacity" from="0" to="1" begin="1.5s" fill="freeze" dur="1s" />
                    <rect width="44" height="44" rx="12" fill="rgba(15,23,42,0.05)" />
                    <path transform="translate(4,4)" d="M18 10C13.58 10 10 13.58 10 18C10 22.42 13.58 26 18 26C22.42 26 26 22.42 26 18C26 13.58 22.42 10 18 10ZM19 22H17V20H19V22ZM19 18H17V14H19V18Z" fill="#475569"/>
                    <text x="60" y="19" fill="#475569" font-size="12" font-weight="600" letter-spacing="1">CURRENT FOCUS</text>
                    <text x="60" y="38" fill="#0F172A" font-size="15" font-weight="600">LLMs • LangChain • Prompt Engineering</text>
                </g>
                
                <g transform="translate(330, 75)" opacity="0">
                    <animate attributeName="opacity" from="0" to="1" begin="2.0s" fill="freeze" dur="1s" />
                    <rect width="44" height="44" rx="12" fill="rgba(15,23,42,0.05)" />
                    <path transform="translate(4,4)" d="M24 12H12C10.9 12 10 12.9 10 14V22C10 23.1 10.9 24 12 24H24C25.1 24 26 23.1 26 22V14C26 12.9 25.1 12 24 12ZM24 16L18 19.5L12 16V14L18 17.5L24 14V16Z" fill="#475569"/>
                    <text x="60" y="19" fill="#475569" font-size="12" font-weight="600" letter-spacing="1">CONTACT</text>
                    <text x="60" y="38" fill="#0F172A" font-size="15" font-weight="600">vonamala.pranay@gmail.com</text>
                </g>
            </g>

            <g transform="translate(0, 335)">
                <text fill="#475569" font-family="-apple-system, sans-serif" font-size="13" font-weight="700" letter-spacing="1.5">TECH STACK &amp; SKILLS</text>
                
                <g transform="translate(0, 25)" font-family="-apple-system, sans-serif" font-size="13.5" font-weight="500">
                    <g class="pill" transform="translate(0, 0)"><rect width="80" height="32" rx="16" fill="rgba(15,23,42,0.04)" stroke="rgba(15,23,42,0.08)"/><text x="40" y="21" fill="#475569" text-anchor="middle">Python</text></g>
                    <g class="pill" transform="translate(92, 0)"><rect width="100" height="32" rx="16" fill="rgba(15,23,42,0.04)" stroke="rgba(15,23,42,0.08)"/><text x="50" y="21" fill="#475569" text-anchor="middle">JavaScript</text></g>
                    <g class="pill" transform="translate(204, 0)"><rect width="76" height="32" rx="16" fill="rgba(15,23,42,0.04)" stroke="rgba(15,23,42,0.08)"/><text x="38" y="21" fill="#475569" text-anchor="middle">React</text></g>
                    <g class="pill" transform="translate(292, 0)"><rect width="86" height="32" rx="16" fill="rgba(15,23,42,0.04)" stroke="rgba(15,23,42,0.08)"/><text x="43" y="21" fill="#475569" text-anchor="middle">FastAPI</text></g>
                    <g class="pill" transform="translate(390, 0)"><rect width="86" height="32" rx="16" fill="rgba(15,23,42,0.04)" stroke="rgba(15,23,42,0.08)"/><text x="43" y="21" fill="#475569" text-anchor="middle">Node.js</text></g>
                    <g class="pill" transform="translate(488, 0)"><rect width="100" height="32" rx="16" fill="rgba(15,23,42,0.04)" stroke="rgba(15,23,42,0.08)"/><text x="50" y="21" fill="#475569" text-anchor="middle">Express.js</text></g>

                    <g class="pill" transform="translate(0, 44)"><rect width="100" height="32" rx="16" fill="rgba(15,23,42,0.04)" stroke="rgba(15,23,42,0.08)"/><text x="50" y="21" fill="#475569" text-anchor="middle">LangChain</text></g>
                    <g class="pill" transform="translate(112, 44)"><rect width="120" height="32" rx="16" fill="rgba(15,23,42,0.04)" stroke="rgba(15,23,42,0.08)"/><text x="60" y="21" fill="#475569" text-anchor="middle">Hugging Face</text></g>
                    <g class="pill" transform="translate(244, 44)"><rect width="70" height="32" rx="16" fill="rgba(15,23,42,0.04)" stroke="rgba(15,23,42,0.08)"/><text x="35" y="21" fill="#475569" text-anchor="middle">LLMs</text></g>
                    <g class="pill" transform="translate(326, 44)"><rect width="90" height="32" rx="16" fill="rgba(15,23,42,0.04)" stroke="rgba(15,23,42,0.08)"/><text x="45" y="21" fill="#475569" text-anchor="middle">AI Agents</text></g>
                    <g class="pill" transform="translate(428, 44)"><rect width="160" height="32" rx="16" fill="rgba(15,23,42,0.04)" stroke="rgba(15,23,42,0.08)"/><text x="80" y="21" fill="#475569" text-anchor="middle">Prompt Engineering</text></g>

                    <g class="pill" transform="translate(0, 88)"><rect width="100" height="32" rx="16" fill="rgba(15,23,42,0.04)" stroke="rgba(15,23,42,0.08)"/><text x="50" y="21" fill="#475569" text-anchor="middle">Kali Linux</text></g>
                    <g class="pill" transform="translate(112, 88)"><rect width="80" height="32" rx="16" fill="rgba(15,23,42,0.04)" stroke="rgba(15,23,42,0.08)"/><text x="40" y="21" fill="#475569" text-anchor="middle">Ubuntu</text></g>
                    <g class="pill" transform="translate(204, 88)"><rect width="90" height="32" rx="16" fill="rgba(15,23,42,0.04)" stroke="rgba(15,23,42,0.08)"/><text x="45" y="21" fill="#475569" text-anchor="middle">Firebase</text></g>
                    <g class="pill" transform="translate(306, 88)"><rect width="90" height="32" rx="16" fill="rgba(15,23,42,0.04)" stroke="rgba(15,23,42,0.08)"/><text x="45" y="21" fill="#475569" text-anchor="middle">Tailwind</text></g>
                    <g class="pill" transform="translate(408, 88)"><rect width="70" height="32" rx="16" fill="rgba(15,23,42,0.04)" stroke="rgba(15,23,42,0.08)"/><text x="35" y="21" fill="#475569" text-anchor="middle">C/C++</text></g>
                    <g class="pill" transform="translate(490, 88)"><rect width="80" height="32" rx="16" fill="rgba(15,23,42,0.04)" stroke="rgba(15,23,42,0.08)"/><text x="40" y="21" fill="#475569" text-anchor="middle">GitHub</text></g>
                    
                    <animateTransform attributeName="transform" type="translate" values="0,25; 0,22; 0,25" dur="5s" repeatCount="indefinite" />
                </g>
            </g>

            <g transform="translate(0, 500)">
                <line x1="0" y1="0" x2="590" y2="0" stroke="rgba(15,23,42,0.06)" stroke-width="1.5" />
                <g transform="translate(0, 25)">
                    <a href="https://github.com/Pranay-Kumar-02" target="_blank" class="social">
                        <rect x="0" y="0" width="40" height="40" rx="10" fill="rgba(15,23,42,0.05)"/>
                        <path transform="translate(5,5)" d="M18 6C11.37 6 6 11.37 6 18C6 23.3 9.44 27.8 14.21 29.38C14.81 29.49 15.03 29.12 15.03 28.8C15.03 28.51 15.02 27.75 15.01 26.74C11.67 27.46 10.97 25.13 10.97 25.13C10.42 23.74 9.63 23.37 9.63 23.37C8.54 22.62 9.71 22.64 9.71 22.64C10.92 22.72 11.55 23.88 11.55 23.88C12.63 25.72 14.37 25.19 15.05 24.88C15.16 24.11 15.47 23.58 15.8 23.28C13.14 22.98 10.34 21.95 10.34 17.37C10.34 16.07 10.8 15 11.55 14.15C11.43 13.85 11.03 12.65 11.66 11.03C11.66 11.03 12.65 10.71 14.99 12.3C15.93 12.04 16.96 11.91 17.99 11.91C19.02 11.91 20.05 12.04 20.99 12.3C23.33 10.71 24.31 11.03 24.31 11.03C24.95 12.65 24.55 13.85 24.43 14.15C25.18 15 25.64 16.07 25.64 17.37C25.64 21.97 22.83 22.97 20.16 23.27C20.57 23.63 20.94 24.33 20.94 25.4C20.94 26.94 20.93 28.18 20.93 28.8C20.93 29.13 21.15 29.5 21.76 29.38C26.55 27.79 30 23.3 30 18C30 11.37 24.63 6 18 6Z" fill="#475569"/>
                    </a>
                    <a href="https://www.linkedin.com/in/pranay-kumar-vonamala/" target="_blank" class="social">
                        <rect x="55" y="0" width="40" height="40" rx="10" fill="rgba(15,23,42,0.05)"/>
                        <path transform="translate(5,5)" d="M54.54 12.5C53.3 12.5 52.3 13.52 52.3 14.78C52.3 16.03 53.3 17.06 54.54 17.06C55.77 17.06 56.78 16.03 56.78 14.78C56.78 13.52 55.77 12.5 54.54 12.5ZM52.48 29H56.6V18.3H52.48V29ZM64.5 18.06C62.31 18.06 61.31 19.26 60.77 20.06V18.3H56.66C56.71 19.46 56.66 29 56.66 29H60.77V23.02C60.77 22.7 60.79 22.38 60.89 22.15C61.16 21.5 61.76 20.83 62.72 20.83C64.02 20.83 64.54 21.82 64.54 23.27V29H68.65V22.9C68.65 19.63 66.9 18.06 64.5 18.06Z" fill="#475569" transform="translate(-40, 0)"/>
                    </a>
                    <a href="mailto:vonamala.pranay@gmail.com" target="_blank" class="social">
                        <rect x="110" y="0" width="40" height="40" rx="10" fill="rgba(15,23,42,0.05)"/>
                        <path transform="translate(5,5)" d="M110 13H102C100.9 13 100 13.9 100 15V23C100 24.1 100.9 25 102 25H110C111.1 25 112 24.1 112 23V15C112 13.9 111.1 13 110 13ZM110 17L106 20.5L102 17V15L106 18.5L110 15V17Z" fill="#475569" transform="translate(-87, 0)"/>
                    </a>
                </g>
            </g>
        </g>
    </g>
</svg>
